<svg width="280" height="180" viewBox="0 0 280 180" fill="none" xmlns="http://www.w3.org/2000/svg">
<rect width="280" height="180" fill="#B79CED"/>
<path d="M40.1721 113C39.3561 113 38.6841 112.736 38.1561 112.208C37.6281 111.68 37.3641 111.008 37.3641 110.192V59.576C37.3641 58.76 37.6281 58.088 38.1561 57.56C38.6841 57.032 39.3561 56.768 40.1721 56.768H54.5721C58.1241 56.768 61.2681 57.56 64.0041 59.144C66.7401 60.68 68.8761 62.816 70.4121 65.552C71.9481 68.288 72.7161 71.456 72.7161 75.056C72.7161 78.56 71.9481 81.68 70.4121 84.416C68.8761 87.104 66.7401 89.24 64.0041 90.824C61.2681 92.36 58.1241 93.128 54.5721 93.128H42.9801V110.192C42.9801 111.008 42.7161 111.68 42.1881 112.208C41.6601 112.736 40.9881 113 40.1721 113ZM42.9801 87.728H54.5721C57.0201 87.728 59.2041 87.2 61.1241 86.144C63.0441 85.04 64.5321 83.528 65.5881 81.608C66.6921 79.688 67.2441 77.504 67.2441 75.056C67.2441 72.512 66.6921 70.28 65.5881 68.36C64.5321 66.44 63.0441 64.928 61.1241 63.824C59.2041 62.72 57.0201 62.168 54.5721 62.168H42.9801V87.728ZM97.2518 113.36C93.4118 113.36 89.9798 112.496 86.9558 110.768C83.9318 109.04 81.5558 106.664 79.8278 103.64C78.0998 100.616 77.2358 97.184 77.2358 93.344C77.2358 89.456 78.0998 86 79.8278 82.976C81.5558 79.952 83.9318 77.576 86.9558 75.848C89.9798 74.12 93.4118 73.256 97.2518 73.256C101.092 73.256 104.5 74.12 107.476 75.848C110.5 77.576 112.876 79.952 114.604 82.976C116.332 86 117.22 89.456 117.268 93.344C117.268 97.184 116.38 100.616 114.604 103.64C112.876 106.664 110.5 109.04 107.476 110.768C104.5 112.496 101.092 113.36 97.2518 113.36ZM97.2518 108.32C100.036 108.32 102.532 107.672 104.74 106.376C106.948 105.08 108.676 103.304 109.924 101.048C111.172 98.792 111.796 96.224 111.796 93.344C111.796 90.464 111.172 87.896 109.924 85.64C108.676 83.336 106.948 81.536 104.74 80.24C102.532 78.944 100.036 78.296 97.2518 78.296C94.4678 78.296 91.9718 78.944 89.7638 80.24C87.5558 81.536 85.8038 83.336 84.5078 85.64C83.2598 87.896 82.6358 90.464 82.6358 93.344C82.6358 96.224 83.2598 98.792 84.5078 101.048C85.8038 103.304 87.5558 105.08 89.7638 106.376C91.9718 107.672 94.4678 108.32 97.2518 108.32ZM136.546 113C133.666 113 131.29 111.848 129.418 109.544C127.546 107.192 126.61 104.192 126.61 100.544V59.504C126.61 58.688 126.85 58.04 127.33 57.56C127.858 57.032 128.53 56.768 129.346 56.768C130.162 56.768 130.81 57.032 131.29 57.56C131.818 58.04 132.082 58.688 132.082 59.504V100.544C132.082 102.608 132.49 104.288 133.306 105.584C134.17 106.88 135.25 107.528 136.546 107.528H138.346C139.066 107.528 139.642 107.792 140.074 108.32C140.506 108.8 140.722 109.448 140.722 110.264C140.722 111.08 140.41 111.752 139.786 112.28C139.21 112.76 138.442 113 137.482 113H136.546ZM156.867 113C153.987 113 151.611 111.848 149.739 109.544C147.867 107.192 146.931 104.192 146.931 100.544V59.504C146.931 58.688 147.171 58.04 147.651 57.56C148.179 57.032 148.851 56.768 149.667 56.768C150.483 56.768 151.131 57.032 151.611 57.56C152.139 58.04 152.403 58.688 152.403 59.504V100.544C152.403 102.608 152.811 104.288 153.627 105.584C154.491 106.88 155.571 107.528 156.867 107.528H158.667C159.387 107.528 159.963 107.792 160.395 108.32C160.827 108.8 161.043 109.448 161.043 110.264C161.043 111.08 160.731 111.752 160.107 112.28C159.531 112.76 158.763 113 157.803 113H156.867ZM172.651 113C171.787 113 171.091 112.76 170.563 112.28C170.083 111.752 169.843 111.056 169.843 110.192V76.424C169.843 75.56 170.083 74.888 170.563 74.408C171.091 73.88 171.787 73.616 172.651 73.616C173.467 73.616 174.115 73.88 174.595 74.408C175.123 74.888 175.387 75.56 175.387 76.424V110.192C175.387 111.056 175.123 111.752 174.595 112.28C174.115 112.76 173.467 113 172.651 113ZM172.579 66.128C171.523 66.128 170.611 65.744 169.843 64.976C169.075 64.208 168.691 63.272 168.691 62.168C168.691 60.968 169.075 60.032 169.843 59.36C170.659 58.64 171.595 58.28 172.651 58.28C173.659 58.28 174.547 58.64 175.315 59.36C176.131 60.032 176.539 60.968 176.539 62.168C176.539 63.272 176.155 64.208 175.387 64.976C174.619 65.744 173.683 66.128 172.579 66.128ZM194.399 113C193.679 113 193.055 112.76 192.527 112.28C191.999 111.752 191.735 111.056 191.735 110.192V79.88H187.127C186.359 79.88 185.735 79.664 185.255 79.232C184.823 78.752 184.607 78.176 184.607 77.504C184.607 76.784 184.823 76.208 185.255 75.776C185.735 75.296 186.359 75.056 187.127 75.056H191.735V73.688C191.735 68.648 193.031 64.568 195.623 61.448C198.215 58.328 201.959 56.768 206.855 56.768C207.671 56.768 208.343 57.008 208.871 57.488C209.399 57.968 209.663 58.568 209.663 59.288C209.663 60.008 209.399 60.608 208.871 61.088C208.343 61.568 207.671 61.808 206.855 61.808C203.591 61.808 201.167 62.912 199.583 65.12C198.047 67.28 197.279 70.04 197.279 73.4V75.056H205.919C206.687 75.056 207.287 75.296 207.719 75.776C208.199 76.208 208.439 76.784 208.439 77.504C208.439 78.176 208.199 78.752 207.719 79.232C207.287 79.664 206.687 79.88 205.919 79.88H197.279V110.192C197.279 111.056 197.015 111.752 196.487 112.28C196.007 112.76 195.311 113 194.399 113ZM222.639 130.136C222.255 130.136 221.823 130.04 221.343 129.848C219.711 129.128 219.255 127.976 219.975 126.392L227.175 110.624L227.103 110.552L211.047 77.288C210.711 76.568 210.663 75.896 210.903 75.272C211.143 74.648 211.623 74.168 212.343 73.832C213.927 73.112 215.079 73.52 215.799 75.056L229.839 104.648L243.231 75.128C243.951 73.592 245.103 73.16 246.687 73.832C248.319 74.504 248.775 75.632 248.055 77.216L224.727 128.48C224.247 129.584 223.551 130.136 222.639 130.136Z" fill="#FCFCFC"/>
</svg>
